# xmcd
#
# Track frame offsets:
#	150
#	15349
#	31251
#	46601
#	61155
#	79852
#	95669
#	109609
#	126748
#	147635
#	164575
#	179219
#	196756
#	211153
#
# Disc length: 4315 seconds
#
# Revision: 0
# Processed by: cddbd v1.5.1PL0 Copyright (c) Steve Scherf et al.
# Submitted via: dBpowerAMP V4.0
#
DISCID=c310d90e
DTITLE=Norah Jones - Feels Like Home
DYEAR=1900
DGENRE=Blues
TTITLE0=Sunrise
TTITLE1=What am I to you?
TTITLE2=Those sweet words
TTITLE3=Carnival town
TTITLE4=In the morning
TTITLE5=Be here to love me
TTITLE6=Creepin' in
TTITLE7=Toes
TTITLE8=Humble me
TTITLE9=Above ground
TTITLE10=The long way home
TTITLE11=The prettiest thing
TTITLE12=Don't miss you at all
TTITLE13=DATA
EXTD=Norah Jones\n
EXTT0=
EXTT1=
EXTT2=
EXTT3=
EXTT4=
EXTT5=
EXTT6=
EXTT7=
EXTT8=
EXTT9=
EXTT10=
EXTT11=
EXTT12=
EXTT13=
PLAYORDER=
